<?xml version="1.0" standalone="no"?>
<!DOCTYPE svg PUBLIC "-//W3C//DTD SVG 20010904//EN"
 "http://www.w3.org/TR/2001/REC-SVG-20010904/DTD/svg10.dtd">
<svg version="1.0" xmlns="http://www.w3.org/2000/svg"
 width="240.000000pt" height="240.000000pt" viewBox="0 0 240.000000 240.000000"
 preserveAspectRatio="xMidYMid meet">

<g transform="translate(0.000000,240.000000) scale(0.100000,-0.100000)"
fill="#000000" stroke="none">
<path d="M1065 2394 c-92 -14 -198 -39 -260 -61 -398 -143 -692 -479 -781
-893 -23 -106 -26 -352 -5 -455 48 -245 161 -457 335 -631 104 -104 209 -178
343 -241 113 -54 156 -63 183 -38 18 16 20 31 20 139 l0 121 -117 0 c-108 0
-122 2 -168 27 -64 34 -85 57 -129 145 -35 71 -83 129 -140 169 -61 42 7 74
88 40 41 -17 103 -71 121 -105 39 -75 127 -130 208 -131 59 0 138 19 141 34
13 50 32 96 52 123 l24 31 -43 7 c-76 12 -187 45 -239 71 -108 55 -198 166
-233 287 -23 80 -34 218 -24 299 9 71 51 174 91 222 24 28 24 30 11 94 -11 50
-11 82 -3 133 17 110 22 119 74 119 55 0 129 -27 219 -80 l68 -39 72 16 c99
23 355 23 454 0 l73 -16 67 40 c90 52 164 79 219 79 52 0 57 -9 74 -119 8 -51
8 -83 -3 -133 -13 -64 -12 -66 11 -94 67 -82 94 -172 93 -309 -1 -192 -48
-322 -153 -422 -81 -76 -182 -119 -352 -148 l-38 -6 20 -22 c50 -53 56 -88 60
-327 3 -192 6 -228 20 -243 24 -27 72 -18 184 36 135 63 240 137 344 241 174
174 287 386 335 631 21 103 18 349 -5 455 -100 464 -456 826 -916 931 -83 19
-327 33 -395 23z"/>
</g>
</svg>
