<?xml version="1.0" standalone="no"?>
<!DOCTYPE svg PUBLIC "-//W3C//DTD SVG 20010904//EN"
 "http://www.w3.org/TR/2001/REC-SVG-20010904/DTD/svg10.dtd">
<svg version="1.0" xmlns="http://www.w3.org/2000/svg"
 width="852.000000pt" height="183.000000pt" viewBox="0 0 852.000000 183.000000"
 preserveAspectRatio="xMidYMid meet">

<g transform="translate(0.000000,183.000000) scale(0.100000,-0.100000)"
fill="#000000" stroke="none">
<path d="M2739 1697 c-79 -36 -106 -108 -134 -359 -7 -61 -17 -72 -36 -37 -10
19 -13 20 -26 6 -18 -18 -5 -49 32 -73 l25 -16 0 -267 c1 -272 7 -347 31 -362
21 -13 76 -11 114 5 45 19 54 56 45 175 -9 100 -2 137 36 212 25 50 49 79 65
79 19 0 38 -68 49 -176 15 -144 27 -197 52 -224 18 -19 28 -22 76 -18 52 5 59
9 99 53 24 26 61 83 81 126 l38 79 12 -80 c27 -191 103 -258 228 -201 51 23
78 59 143 189 28 56 55 102 61 102 5 0 14 -9 19 -19 6 -10 44 -44 86 -76 41
-31 75 -62 75 -69 0 -6 -14 -31 -31 -54 -57 -78 -45 -168 26 -192 139 -46 255
112 200 274 l-15 44 41 61 c40 60 57 77 45 44 -10 -26 14 -173 36 -226 38 -87
90 -112 179 -86 53 16 93 62 149 169 l47 93 12 -51 c36 -150 178 -186 285 -72
25 27 51 61 58 75 15 34 25 32 32 -10 11 -55 44 -122 73 -144 32 -26 83 -27
131 -2 39 21 88 86 122 164 12 26 24 47 28 47 5 0 18 -20 30 -46 17 -34 32
-50 65 -64 58 -27 93 -25 156 10 30 17 56 29 58 27 1 -2 -2 -53 -8 -113 -7
-81 -14 -112 -26 -119 -74 -46 -128 -128 -139 -209 -8 -57 0 -87 32 -125 23
-28 31 -31 83 -31 103 0 177 68 215 198 21 74 24 77 52 47 13 -14 29 -23 34
-20 15 9 2 45 -27 76 -22 24 -23 30 -15 85 11 67 -1 351 -17 432 -32 161 -105
232 -237 232 -122 0 -195 -56 -235 -180 -29 -90 -132 -301 -158 -324 -20 -19
-23 -19 -39 -3 -15 15 -18 46 -22 215 -3 125 -9 205 -17 218 -6 11 -30 28 -52
36 -46 19 -47 18 -70 -54 -11 -34 -31 -52 -31 -29 0 4 -12 20 -26 35 -22 21
-36 26 -80 26 -64 0 -93 -10 -144 -51 -51 -41 -74 -77 -161 -250 -39 -79 -82
-159 -96 -177 -31 -41 -70 -44 -79 -5 -10 37 3 455 15 485 6 16 22 28 49 36
22 7 51 21 64 32 l23 19 -62 1 -63 0 0 55 c0 47 -4 59 -31 90 -33 38 -68 45
-90 19 -7 -8 -24 -57 -39 -107 l-26 -92 -44 -7 c-53 -9 -94 -43 -70 -58 8 -5
37 -7 64 -3 44 5 48 4 42 -13 -3 -10 -10 -50 -15 -88 -8 -58 -18 -81 -58 -140
-27 -39 -56 -72 -64 -74 -17 -3 -119 118 -150 180 -13 26 -19 54 -17 81 3 35
7 43 30 51 40 14 64 -12 70 -75 3 -27 8 -53 12 -57 4 -4 19 6 32 21 20 24 23
35 18 65 -14 79 -59 116 -143 117 -73 0 -139 -32 -189 -93 -36 -44 -37 -48
-37 -126 -1 -78 -3 -85 -58 -191 -70 -137 -86 -158 -118 -153 l-24 3 1 253 c1
284 -3 269 78 299 71 26 73 45 5 42 l-54 -3 -5 55 c-9 97 -79 161 -123 112
-15 -18 -39 -86 -54 -158 -8 -37 -12 -40 -50 -47 -56 -9 -85 -26 -81 -46 3
-14 14 -16 56 -14 59 3 57 7 41 -87 -8 -46 -30 -102 -71 -183 -93 -182 -118
-191 -118 -45 0 185 -38 288 -107 295 -63 6 -109 -15 -166 -78 -29 -33 -57
-57 -60 -53 -4 3 -7 49 -7 100 0 90 1 96 30 132 43 53 71 134 77 221 6 92 -9
153 -47 192 -30 30 -58 34 -101 15z m92 -84 c17 -45 6 -200 -19 -256 -35 -79
-44 -53 -39 113 3 82 8 153 12 159 12 20 35 11 46 -16z m2820 -440 c17 -33 17
-159 0 -229 -9 -36 -23 -61 -49 -86 -46 -44 -67 -51 -87 -32 -18 18 -18 41 -5
154 16 124 38 189 74 211 34 21 48 17 67 -18z m-735 -50 c9 -10 25 -35 35 -58
24 -54 15 -113 -29 -190 -43 -75 -66 -100 -103 -115 -37 -16 -55 -2 -69 51
-21 79 32 254 92 304 35 29 51 31 74 8z m-925 -474 c22 -82 -14 -139 -67 -104
-37 24 -34 83 7 130 18 20 36 32 40 28 4 -4 13 -29 20 -54z m1616 -212 c-9
-104 -26 -151 -56 -155 -29 -5 -41 12 -41 58 0 58 62 170 93 170 6 0 8 -28 4
-73z"/>
<path d="M1065 1244 c-64 -22 -111 -68 -147 -142 -30 -62 -33 -74 -33 -168 0
-92 3 -105 30 -160 39 -77 88 -104 189 -104 l69 0 47 48 c39 39 51 61 75 137
16 50 31 93 34 96 3 4 21 10 39 14 l32 7 0 -72 c0 -85 15 -125 63 -167 65 -57
142 -56 208 4 l38 34 20 -40 c35 -67 82 -87 139 -57 39 20 55 41 110 139 l48
86 27 -55 c22 -44 36 -59 70 -74 58 -27 93 -25 156 10 30 17 56 29 58 27 1 -2
-2 -53 -8 -113 -9 -93 -13 -111 -32 -124 -81 -57 -125 -127 -134 -215 -10 -91
35 -145 120 -145 104 0 167 59 212 200 24 75 24 74 51 45 13 -14 29 -23 34
-20 15 9 2 45 -26 75 -21 23 -23 30 -15 79 10 66 -3 376 -19 451 -23 103 -74
179 -139 206 -18 8 -63 14 -99 14 -121 0 -189 -54 -238 -191 -32 -90 -126
-280 -150 -304 -17 -16 -18 -16 -31 1 -16 22 -17 89 -1 223 l12 104 -31 28
c-35 31 -67 30 -84 -3 -6 -11 -19 -68 -30 -126 -21 -118 -40 -158 -87 -185
-27 -16 -35 -17 -49 -6 -14 12 -15 29 -8 129 13 193 8 215 -62 256 -36 21 -50
24 -68 16 -19 -9 -23 -21 -29 -81 -8 -80 -27 -111 -71 -114 -30 -2 -30 -2 -37
66 -8 86 -31 125 -93 159 -56 31 -99 34 -160 12z m1274 -55 c29 -31 36 -99 21
-197 -11 -74 -17 -89 -48 -124 -58 -64 -96 -70 -107 -17 -9 41 14 214 37 277
16 44 46 76 75 82 1 0 11 -10 22 -21z m-1087 -112 c15 -73 2 -92 -36 -54 -20
20 -26 36 -26 70 0 50 17 75 37 54 7 -7 19 -39 25 -70z m-77 -105 c15 -12 38
-22 51 -22 19 0 24 -5 24 -24 0 -29 -32 -107 -61 -148 -29 -41 -68 -36 -91 12
-23 45 -24 175 -3 227 l16 37 18 -30 c10 -17 31 -40 46 -52z m1132 -534 c-9
-95 -23 -145 -47 -158 -27 -14 -50 13 -50 58 1 60 61 172 93 172 6 0 7 -28 4
-72z"/>
<path d="M7181 1233 c-5 -10 -16 -67 -25 -128 -14 -98 -23 -123 -76 -232 -33
-66 -68 -124 -77 -127 -9 -4 -23 0 -32 9 -13 13 -17 53 -22 223 -3 114 -7 208
-7 210 -7 11 -71 42 -89 42 -18 0 -25 -9 -34 -42 -16 -56 -27 -68 -41 -44 -25
44 -47 56 -103 56 -124 0 -226 -99 -255 -247 -16 -82 -6 -142 34 -200 38 -55
92 -80 153 -68 42 8 134 89 153 135 17 40 27 38 35 -7 9 -53 55 -135 85 -150
62 -31 136 -3 187 72 l33 47 0 -42 c0 -78 83 -129 129 -79 19 21 33 81 46 204
10 82 29 165 48 200 30 59 77 115 96 115 39 0 42 -19 29 -176 -7 -82 -12 -189
-12 -238 0 -80 2 -91 23 -107 13 -11 36 -19 52 -19 48 0 62 36 74 205 11 149
24 203 62 253 23 31 27 33 42 18 13 -14 16 -44 16 -189 0 -124 4 -178 13 -195
33 -58 151 -61 219 -5 53 42 191 247 228 338 l17 40 -37 -35 c-20 -19 -47 -49
-59 -66 -112 -165 -195 -259 -213 -241 -3 4 -5 83 -4 177 l2 172 -31 48 c-25
39 -39 51 -66 56 -52 10 -80 -2 -136 -56 -29 -28 -53 -50 -55 -50 -1 0 -9 16
-17 35 -11 26 -27 41 -58 55 -70 32 -102 27 -158 -26 -47 -44 -70 -50 -70 -18
0 20 -61 94 -77 94 -7 0 -17 -8 -22 -17z m-456 -99 c9 -4 27 -29 41 -56 34
-66 26 -121 -30 -214 -36 -59 -92 -114 -116 -114 -19 0 -42 30 -50 64 -19 84
36 258 97 306 28 22 33 23 58 14z"/>
<path d="M423 1233 c-19 -7 -16 -33 17 -199 50 -250 80 -352 108 -375 27 -21
100 -26 133 -9 24 13 55 73 70 136 6 27 28 105 49 174 61 205 78 270 69 270
-14 0 -58 -96 -116 -250 -30 -80 -59 -149 -63 -154 -13 -13 -27 29 -61 179
-35 157 -49 189 -91 215 -31 19 -87 25 -115 13z"/>
<path d="M5901 1196 c-13 -16 2 -171 41 -420 25 -167 31 -176 117 -176 41 0
62 5 71 15 8 10 16 65 21 143 8 140 31 230 80 318 47 82 93 104 123 59 15 -23
45 -33 58 -19 11 10 -16 75 -35 86 -31 16 -93 3 -129 -27 -39 -32 -91 -112
-109 -167 -7 -21 -16 -38 -20 -38 -4 0 -11 21 -15 48 -13 92 -67 161 -142 182
-47 13 -47 13 -61 -4z"/>
</g>
</svg>
